<svg width="693" height="191" viewBox="0 0 693 191" fill="none" xmlns="http://www.w3.org/2000/svg">
<path opacity="0.5" d="M406.407 1.08512C363.523 1.02466 323.065 4.05009 314.681 8.70524C297.919 18.0165 252.455 55.8038 252.455 55.8038C252.455 55.8038 133.009 65.7092 115.474 68.0567C97.9387 70.4042 23.2866 84.6768 21.6187 90.8064C19.9507 96.9369 12.5077 114.493 15.7066 124.338C15.7066 124.338 1.0369 124.247 0.609818 127.519C0.181837 130.792 44.7972 163.817 54.1602 165.104C63.5241 166.389 80.2441 164.445 82.2918 162.819C83.5897 161.789 83.142 154.003 86.2711 147.941C85.7439 144.867 85.4824 141.753 85.4909 138.634C85.5787 124.319 91.3246 110.625 101.463 100.564C111.601 90.5043 125.301 84.902 139.551 84.9912C169.221 85.1759 193.125 109.49 192.938 139.3C192.847 152.063 188.257 164.381 179.981 174.067C180.028 174.093 180.825 174.484 180.825 174.484C180.825 174.484 402.576 172.723 488.345 155.201C487.127 150.607 486.518 145.872 486.534 141.118C486.623 126.803 492.366 113.109 502.506 103.049C512.644 92.9888 526.344 87.3874 540.594 87.4756C568.025 87.6654 590.908 108.587 593.673 136.005C633.822 131.078 676.919 124.396 685.214 117.636C701.431 104.421 682.707 57.4143 682.707 57.4143C682.707 57.4143 694.314 44.1714 689.711 42.9837C685.108 41.7986 682.42 40.4544 672.627 42.8526C662.834 45.2481 644.059 50.0459 644.059 50.0459C644.059 50.0459 548.856 27.349 512.687 11.9785C494.604 4.29556 449.292 1.14829 406.407 1.08782L406.407 1.08512ZM413.242 10.4795C428.831 10.514 442.197 11.2745 449.028 13.125C470.887 19.0484 490.337 42.3272 490.337 42.3272C488.533 54.4744 290.285 58.4556 284.544 54.9477C278.806 51.4381 309.529 21.5256 323.964 16.9844C333.887 13.8616 378.945 10.4075 413.242 10.4795ZM543.028 49.024C543.028 49.024 444.322 89.7395 347.381 84.2267C250.44 78.7147 227.771 68.0999 59.3422 85.3925C59.3422 85.3925 200.016 62.0274 293.694 68.3382C387.367 74.648 543.028 49.024 543.028 49.024ZM674.894 63.7345C674.894 63.7345 673.108 72.9855 668.486 75.2726C663.862 77.5597 580.251 86.3038 580.251 86.3038L674.894 63.7345ZM139.016 90.5734C112.508 90.4092 90.712 112.037 90.547 138.668C90.382 165.299 111.908 187.187 138.416 187.351C164.924 187.515 186.712 165.896 186.877 139.265C187.042 112.633 165.524 90.7376 139.016 90.5734ZM540.628 93.0614C514.121 92.8972 492.336 114.525 492.171 141.156C492.006 167.787 513.522 189.675 540.029 189.839C566.536 190.003 588.334 168.384 588.499 141.753C588.664 115.121 567.136 93.2256 540.628 93.0614ZM481.033 103.636C481.033 103.636 467.094 121.495 467.544 141.759C467.544 141.759 382.764 153.392 349.352 152.027C349.352 152.027 442.2 139.865 456.653 132.429C456.653 132.429 454.788 108.104 481.033 103.636ZM138.919 106.185C157.027 106.298 171.447 120.975 171.334 139.168C171.221 157.362 156.62 171.851 138.513 171.739C120.403 171.627 105.974 156.957 106.087 138.764C106.2 120.571 120.809 106.073 138.919 106.185ZM540.532 108.673C558.641 108.786 573.07 123.463 572.958 141.656C572.845 159.85 558.235 174.339 540.126 174.227C522.016 174.115 507.599 159.445 507.711 141.252C507.824 123.059 522.422 108.561 540.532 108.673ZM43.8951 119.996C54.4476 120.025 64.5972 120.738 64.5972 120.738L23.911 130.907C23.911 130.907 17.5849 128.843 20.7879 123.363C22.3898 120.623 33.3434 119.968 43.8951 119.996Z" fill="#EFF2F6" stroke="#240A38" stroke-width="0.749999"/>
</svg>
