<svg width="236" height="58" viewBox="0 0 236 58" fill="none" xmlns="http://www.w3.org/2000/svg">
<path d="M47.602 31.932C47.1676 31.4632 46.8812 30.8702 46.796 30.205C46.7758 30.0724 46.7569 29.9446 46.7569 29.8096C46.7569 29.187 46.9439 28.6058 47.2611 28.1158C47.5334 27.698 47.9051 27.3571 48.3407 27.1097C48.4318 27.0588 48.517 27.0043 48.6117 26.9617C48.9976 26.7913 49.4213 26.6906 49.8688 26.6906C49.9871 26.6906 50.096 26.7131 50.2144 26.7238C50.9116 26.8007 51.5389 27.099 52.0207 27.5618C52.6125 28.13 52.9818 28.9231 52.9818 29.8061C52.9818 29.9304 52.957 30.0535 52.9475 30.1742C52.7617 31.7165 51.4608 32.9203 49.8676 32.9203C48.9716 32.9227 48.1678 32.5415 47.602 31.932ZM9.66175 27.1132C9.57298 27.0623 9.48539 27.0079 9.39069 26.9653C9.00482 26.7924 8.58224 26.6942 8.13482 26.6942C8.01645 26.6942 7.90518 26.7167 7.79037 26.7285C7.092 26.8055 6.46347 27.1038 5.9829 27.5654C5.39106 28.1335 5.01939 28.9266 5.01939 29.8096C5.01939 29.9351 5.04424 30.057 5.05726 30.1801C5.2431 31.7201 6.54396 32.9215 8.136 32.9215C9.03204 32.9215 9.83457 32.5356 10.4027 31.926C10.8383 31.4597 11.1236 30.8643 11.2088 30.2002C11.2266 30.0712 11.2502 29.9387 11.2502 29.8049C11.2502 29.1858 11.0609 28.6023 10.7448 28.1134C10.469 27.7003 10.0962 27.3606 9.66175 27.1132ZM1.59975 28.1276C1.20677 27.4813 0.967672 26.7297 0.967672 25.9177C0.967672 23.5882 2.83314 21.7003 5.14841 21.6446C5.39461 21.4174 5.65265 21.1949 5.91898 20.9782V11.1336C5.91898 8.25494 8.86396 6.00122 12.6221 6.00122H45.3779C49.1373 6.00122 52.0799 8.25494 52.0799 11.1336V20.9771C52.3462 21.196 52.6042 21.415 52.8493 21.6435C55.1657 21.6991 57.0312 23.5882 57.0312 25.9165C57.0312 26.7285 56.7885 27.479 56.3979 28.1253C56.4287 28.407 56.4701 28.6875 56.4701 28.9728V36.0381C56.4701 36.3814 56.1931 36.6584 55.8511 36.6584H43.9315V36.0381V35.4131V32.2314V30.3612V28.4958V23.8913C43.9315 21.4458 40.9652 19.5306 37.1774 19.5306H20.8226C17.0337 19.5306 14.0674 21.4458 14.0674 23.8913V28.4958V30.3612V32.2291V35.412V36.0358V36.6548H2.14779C1.80216 36.6548 1.52518 36.379 1.52518 36.0358V28.9704C1.52755 28.6875 1.57134 28.4082 1.59975 28.1276ZM46.2136 32.1687C46.9889 33.3713 48.3347 34.1703 49.8676 34.1703C52.2326 34.1703 54.1525 32.2729 54.2164 29.9233C54.2164 29.8866 54.2306 29.8475 54.2306 29.8073C54.2306 28.2152 53.3618 26.8339 52.0822 26.074C51.5236 25.7437 50.8903 25.5389 50.2144 25.4857C50.0996 25.475 49.9895 25.4513 49.8688 25.4513C49.3858 25.4513 48.9289 25.5484 48.4886 25.6952C48.4413 25.7129 48.3904 25.7224 48.3407 25.7402C47.1049 26.2053 46.1485 27.2126 45.7378 28.4756C45.6016 28.8982 45.5069 29.3421 45.5069 29.8084C45.5069 29.9943 45.5413 30.173 45.5626 30.3518C45.6454 31.0134 45.8644 31.636 46.2136 32.1687ZM12.2611 28.4733C11.8504 27.2127 10.8928 26.2053 9.65702 25.739C9.60967 25.7212 9.55996 25.7094 9.51024 25.6928C9.07347 25.5472 8.61539 25.4502 8.13126 25.4502C8.0129 25.4502 7.90163 25.475 7.78681 25.4833C7.10857 25.5366 6.47649 25.7413 5.91898 26.0716C4.63824 26.8327 3.77061 28.2152 3.77061 29.8061C3.77061 29.8451 3.78126 29.8795 3.78126 29.9244C3.84518 32.274 5.76747 34.1667 8.13126 34.1667C9.66412 34.1667 11.0088 33.3666 11.7853 32.1675C12.1333 31.6337 12.3511 31.0134 12.4339 30.3518C12.4588 30.1707 12.4895 29.9943 12.4895 29.8084C12.4919 29.3421 12.3984 28.8982 12.2611 28.4733ZM7.78918 14.1331C7.78918 15.1759 8.53016 16.0956 9.65702 16.6933C10.43 17.1017 11.3828 17.3562 12.4304 17.3834C15.9092 16.1039 19.9917 15.3534 24.3701 15.3534H33.63C38.0072 15.3534 42.0885 16.1039 45.5673 17.3834C46.6149 17.3562 47.5665 17.1017 48.3407 16.6933C49.4711 16.0944 50.2085 15.1759 50.2085 14.1331V11.1336C50.2085 9.33089 48.0471 7.86906 45.3779 7.86906H12.6221C9.95412 7.86906 7.78918 9.32971 7.78918 11.1336V14.1331ZM15.315 28.4958V30.3612V32.2291V35.412V36.0358V36.6548V36.8134H16.778V36.6548V36.0358V35.412V32.2291V30.3612V28.4958V21.8175C15.882 22.3738 15.315 23.1006 15.315 23.8913V28.4958ZM41.222 28.4958V30.3612V32.2291V35.412V36.0358V36.6548V36.8134H42.6839V36.6548V36.0358V35.412V32.2291V30.3612V28.4958V23.8913C42.6839 23.1006 42.1169 22.3738 41.222 21.8175V28.4958ZM29.622 30.3648V32.2326V35.4143V36.0358V36.6595V36.8134H31.2744V36.6595V36.0358V35.4143V32.2326V30.3648V28.4958V20.777H29.622V28.4958V30.3648ZM32.5244 30.3648V32.2326V35.4143V36.0358V36.6595V36.8134H34.1768V36.6595V36.0358V35.4143V32.2326V30.3648V28.4958V20.777H32.5244V28.4958V30.3648ZM35.422 30.3648V32.2326V35.4143V36.0358V36.6595V36.8134H37.0756V36.6595V36.0358V35.4143V32.2326V30.3648V28.4958V20.777H35.422V28.4958V30.3648ZM38.322 30.3648V32.2326V35.4143V36.0358V36.6595V36.8134H39.9744V36.6595V36.0358V35.4143V32.2326V30.3648V28.4958V21.2387C39.4643 21.0623 38.9139 20.9238 38.322 20.8528V28.4958V30.3648ZM20.9232 30.3648V32.2326V35.4143V36.0358V36.6595V36.8134H22.578V36.6595V36.0358V35.4143V32.2326V30.3648V28.4958V20.777H20.9232V28.4958V30.3648ZM26.722 30.3648V32.2326V35.4143V36.0358V36.6595V36.8134H28.3756V36.6595V36.0358V35.4143V32.2326V30.3648V28.4958V20.777H26.722V28.4958V30.3648ZM23.8232 30.3648V32.2326V35.4143V36.0358V36.6595V36.8134H25.4768V36.6595V36.0358V35.4143V32.2326V30.3648V28.4958V20.777H23.8232V28.4958V30.3648ZM18.0244 30.3648V32.2326V35.4143V36.0358V36.6595V36.8134H19.678V36.6595V36.0358V35.4143V32.2326V30.3648V28.4958V20.8528C19.085 20.9273 18.5334 21.0623 18.0244 21.2387V28.4958V30.3648ZM57.3792 37.7521H0.623223C0.278774 37.7521 0.000610352 38.0291 0.000610352 38.3735V40.8651C0.000610352 41.2084 0.279957 41.4842 0.623223 41.4842H57.3768C57.7213 41.4842 57.9994 41.206 57.9994 40.8651V38.3735C58.0006 38.0291 57.7236 37.7521 57.3792 37.7521ZM11.9474 42.5033H3.22612C2.88167 42.5033 2.60469 42.7791 2.60469 43.1224V48.8833C2.60469 50.5961 4.00024 51.9976 5.71894 51.9976H9.45698C11.1757 51.9976 12.5724 50.6032 12.5724 48.8833V43.1224C12.5724 42.7803 12.2919 42.5033 11.9474 42.5033ZM54.7727 42.5033H46.0538C45.7093 42.5033 45.43 42.7791 45.43 43.1224V48.8833C45.43 50.5961 46.8279 51.9976 48.5478 51.9976H52.2823C53.9986 51.9976 55.4001 50.6032 55.4001 48.8833V43.1224C55.3965 42.7803 55.1172 42.5033 54.7727 42.5033Z" fill="#0F172A"/>
<path d="M80.624 40.448C77.8507 40.448 75.6533 39.68 74.032 38.144C72.4107 36.5867 71.6 34.368 71.6 31.488V26.112C71.6 23.232 72.4107 21.024 74.032 19.488C75.6533 17.9307 77.8507 17.152 80.624 17.152C83.376 17.152 85.4987 17.9093 86.992 19.424C88.5067 20.9173 89.264 22.976 89.264 25.6V25.792H85.104V25.472C85.104 24.1493 84.7307 23.0613 83.984 22.208C83.2587 21.3547 82.1387 20.928 80.624 20.928C79.1307 20.928 77.9573 21.3867 77.104 22.304C76.2507 23.2213 75.824 24.4693 75.824 26.048V31.552C75.824 33.1093 76.2507 34.3573 77.104 35.296C77.9573 36.2133 79.1307 36.672 80.624 36.672C82.1387 36.672 83.2587 36.2453 83.984 35.392C84.7307 34.5173 85.104 33.4293 85.104 32.128V31.552H89.264V32C89.264 34.624 88.5067 36.6933 86.992 38.208C85.4987 39.7013 83.376 40.448 80.624 40.448ZM97.7618 40.448C96.6311 40.448 95.6178 40.256 94.7218 39.872C93.8258 39.4667 93.1111 38.8907 92.5778 38.144C92.0658 37.376 91.8098 36.448 91.8098 35.36C91.8098 34.272 92.0658 33.3653 92.5778 32.64C93.1111 31.8933 93.8364 31.3387 94.7538 30.976C95.6924 30.592 96.7591 30.4 97.9538 30.4H102.306V29.504C102.306 28.7573 102.071 28.1493 101.602 27.68C101.132 27.1893 100.386 26.944 99.3618 26.944C98.3591 26.944 97.6124 27.1787 97.1218 27.648C96.6311 28.096 96.3111 28.6827 96.1618 29.408L92.4498 28.16C92.7058 27.3493 93.1111 26.6133 93.6658 25.952C94.2418 25.2693 94.9991 24.7253 95.9378 24.32C96.8978 23.8933 98.0604 23.68 99.4258 23.68C101.516 23.68 103.17 24.2027 104.386 25.248C105.602 26.2933 106.21 27.808 106.21 29.792V35.712C106.21 36.352 106.508 36.672 107.106 36.672H108.386V40H105.698C104.908 40 104.258 39.808 103.746 39.424C103.234 39.04 102.978 38.528 102.978 37.888V37.856H102.37C102.284 38.112 102.092 38.4533 101.794 38.88C101.495 39.2853 101.026 39.648 100.386 39.968C99.7458 40.288 98.8711 40.448 97.7618 40.448ZM98.4658 37.184C99.5964 37.184 100.514 36.8747 101.218 36.256C101.943 35.616 102.306 34.7733 102.306 33.728V33.408H98.2418C97.4951 33.408 96.9084 33.568 96.4818 33.888C96.0551 34.208 95.8418 34.656 95.8418 35.232C95.8418 35.808 96.0658 36.2773 96.5138 36.64C96.9618 37.0027 97.6124 37.184 98.4658 37.184ZM111.334 40V24.128H115.302V25.92H115.878C116.112 25.28 116.496 24.8107 117.03 24.512C117.584 24.2133 118.224 24.064 118.95 24.064H120.87V27.648H118.886C117.862 27.648 117.019 27.9253 116.358 28.48C115.696 29.0133 115.366 29.8453 115.366 30.976V40H111.334ZM130.238 40.448C128.169 40.448 126.473 40 125.15 39.104C123.828 38.208 123.028 36.928 122.75 35.264L126.462 34.304C126.612 35.0507 126.857 35.6373 127.198 36.064C127.561 36.4907 127.998 36.8 128.51 36.992C129.044 37.1627 129.62 37.248 130.238 37.248C131.177 37.248 131.87 37.088 132.318 36.768C132.766 36.4267 132.99 36.0107 132.99 35.52C132.99 35.0293 132.777 34.656 132.35 34.4C131.924 34.1227 131.241 33.8987 130.302 33.728L129.406 33.568C128.297 33.3547 127.284 33.0667 126.366 32.704C125.449 32.32 124.713 31.7973 124.158 31.136C123.604 30.4747 123.326 29.6213 123.326 28.576C123.326 26.9973 123.902 25.792 125.054 24.96C126.206 24.1067 127.721 23.68 129.598 23.68C131.369 23.68 132.841 24.0747 134.014 24.864C135.188 25.6533 135.956 26.688 136.318 27.968L132.574 29.12C132.404 28.3093 132.052 27.7333 131.518 27.392C131.006 27.0507 130.366 26.88 129.598 26.88C128.83 26.88 128.244 27.0187 127.838 27.296C127.433 27.552 127.23 27.9147 127.23 28.384C127.23 28.896 127.444 29.28 127.87 29.536C128.297 29.7707 128.873 29.952 129.598 30.08L130.494 30.24C131.689 30.4533 132.766 30.7413 133.726 31.104C134.708 31.4453 135.476 31.9467 136.03 32.608C136.606 33.248 136.894 34.1227 136.894 35.232C136.894 36.896 136.286 38.1867 135.07 39.104C133.876 40 132.265 40.448 130.238 40.448ZM140.299 40V17.6H154.38V21.44H144.524V26.848H153.612V30.688H144.524V40H140.299ZM157.521 40V24.128H161.553V40H157.521ZM159.537 22.272C158.812 22.272 158.193 22.0373 157.681 21.568C157.191 21.0987 156.945 20.48 156.945 19.712C156.945 18.944 157.191 18.3253 157.681 17.856C158.193 17.3867 158.812 17.152 159.537 17.152C160.284 17.152 160.903 17.3867 161.393 17.856C161.884 18.3253 162.129 18.944 162.129 19.712C162.129 20.48 161.884 21.0987 161.393 21.568C160.903 22.0373 160.284 22.272 159.537 22.272ZM166.021 40V24.128H169.989V26.208H170.565C170.821 25.6533 171.301 25.1307 172.005 24.64C172.709 24.128 173.776 23.872 175.205 23.872C176.443 23.872 177.52 24.16 178.437 24.736C179.376 25.2907 180.101 26.0693 180.613 27.072C181.125 28.0533 181.381 29.2053 181.381 30.528V40H177.349V30.848C177.349 29.6533 177.051 28.7573 176.453 28.16C175.877 27.5627 175.045 27.264 173.957 27.264C172.72 27.264 171.76 27.68 171.077 28.512C170.395 29.3227 170.053 30.464 170.053 31.936V40H166.021ZM192.14 40.448C190.881 40.448 189.697 40.1387 188.588 39.52C187.5 38.88 186.625 37.952 185.964 36.736C185.303 35.52 184.972 34.048 184.972 32.32V31.808C184.972 30.08 185.303 28.608 185.964 27.392C186.625 26.176 187.5 25.2587 188.588 24.64C189.676 24 190.86 23.68 192.14 23.68C193.1 23.68 193.9 23.7973 194.54 24.032C195.201 24.2453 195.735 24.5227 196.14 24.864C196.545 25.2053 196.855 25.568 197.068 25.952H197.644V17.6H201.676V40H197.708V38.08H197.132C196.769 38.6773 196.204 39.2213 195.436 39.712C194.689 40.2027 193.591 40.448 192.14 40.448ZM193.356 36.928C194.593 36.928 195.628 36.5333 196.46 35.744C197.292 34.9333 197.708 33.76 197.708 32.224V31.904C197.708 30.368 197.292 29.2053 196.46 28.416C195.649 27.6053 194.615 27.2 193.356 27.2C192.119 27.2 191.084 27.6053 190.252 28.416C189.42 29.2053 189.004 30.368 189.004 31.904V32.224C189.004 33.76 189.42 34.9333 190.252 35.744C191.084 36.5333 192.119 36.928 193.356 36.928ZM213.378 40.448C211.8 40.448 210.402 40.1173 209.186 39.456C207.992 38.7733 207.053 37.824 206.37 36.608C205.709 35.3707 205.378 33.92 205.378 32.256V31.872C205.378 30.208 205.709 28.768 206.37 27.552C207.032 26.3147 207.96 25.3653 209.154 24.704C210.349 24.0213 211.736 23.68 213.314 23.68C214.872 23.68 216.226 24.032 217.378 24.736C218.53 25.4187 219.426 26.3787 220.066 27.616C220.706 28.832 221.026 30.2507 221.026 31.872V33.248H209.474C209.517 34.336 209.922 35.2213 210.69 35.904C211.458 36.5867 212.397 36.928 213.506 36.928C214.637 36.928 215.469 36.6827 216.002 36.192C216.536 35.7013 216.941 35.1573 217.218 34.56L220.514 36.288C220.216 36.8427 219.778 37.4507 219.202 38.112C218.648 38.752 217.901 39.3067 216.962 39.776C216.024 40.224 214.829 40.448 213.378 40.448ZM209.506 30.24H216.93C216.845 29.3227 216.472 28.5867 215.81 28.032C215.17 27.4773 214.328 27.2 213.282 27.2C212.194 27.2 211.33 27.4773 210.69 28.032C210.05 28.5867 209.656 29.3227 209.506 30.24ZM224.615 40V24.128H228.583V25.92H229.159C229.394 25.28 229.778 24.8107 230.311 24.512C230.866 24.2133 231.506 24.064 232.231 24.064H234.151V27.648H232.167C231.143 27.648 230.3 27.9253 229.639 28.48C228.978 29.0133 228.647 29.8453 228.647 30.976V40H224.615Z" fill="#0F172A"/>
</svg>
